<?xml version="1.0" standalone="no"?>
<svg xmlns="http://www.w3.org/2000/svg" viewBox="0 0 161.377 36" width="161.377" height="36"><g fill="#cc008d" color="#cc008d" transform="translate(0 3.9999999999999982) scale(0.2800001)"><svg width="100.0" height="100.0" x="0.0" y="0.0" viewBox="0 0 100 100"><g><path d="M50,100.083C22.383,100.083-0.084,77.615-0.084,50C-0.084,22.383,22.383-0.084,50-0.084   c27.616,0,50.083,22.468,50.083,50.084C100.083,77.615,77.615,100.083,50,100.083z M50,3.916C24.589,3.916,3.916,24.589,3.916,50   S24.589,96.083,50,96.083S96.083,75.41,96.083,50S75.41,3.916,50,3.916z"></path></g></svg></g><path fill="#ffffff" fill-rule="nonzero" d="M10.03 2.71Q10.03 2.02 10.36 1.50Q10.68 0.98 11.33 0.98L11.33 0.98Q11.88 0.98 12.31 1.20Q12.74 1.42 12.74 1.92L12.74 1.92Q12.74 2.90 12.65 4.68L12.65 4.68Q12.55 6.41 12.55 7.25L12.55 7.25Q12.55 8.57 12.65 10.78L12.65 10.78Q12.74 12.89 12.74 13.87L12.74 13.87Q12.74 14.66 12.72 15.05L12.72 15.05Q12.72 15.43 12.30 15.80Q11.88 16.18 11.02 16.18L11.02 16.18Q10.56 16.18 10.24 16.02Q9.91 15.86 9.79 15.67L9.79 15.67Q8.66 14.30 6.50 11.02L6.50 11.02Q4.08 7.34 2.54 5.40L2.54 5.40Q2.74 7.13 2.74 9.62L2.74 9.62Q2.74 10.73 2.70 12.49Q2.66 14.26 2.59 14.81L2.59 14.81Q2.50 15.50 2.17 15.88Q1.85 16.25 1.15 16.25L1.15 16.25Q0.62 16.25 0.37 15.95Q0.12 15.65 0.07 14.90L0.07 14.90Q0.05 13.92 0.19 11.95L0.19 11.95Q0.22 11.64 0.26 10.87Q0.31 10.10 0.31 9.50L0.31 9.50Q0.31 7.85 0.14 5.71L0.14 5.71Q0 3.36 0 2.23L0 2.23Q0 1.66 0.42 1.34Q0.84 1.03 1.39 1.03L1.39 1.03Q1.87 1.03 2.40 1.27L2.40 1.27Q4.46 3.86 7.99 9L7.99 9L10.25 12.46Q10.27 12.07 10.27 11.38L10.27 11.38Q10.27 10.15 10.22 8.74Q10.18 7.32 10.15 6.82L10.15 6.82Q10.03 4.49 10.03 2.71L10.03 2.71ZM27.91 2.88Q28.27 3.31 28.42 3.58Q28.56 3.84 28.56 4.08L28.56 4.08Q28.56 4.37 28.19 4.75Q27.82 5.14 27.46 5.14L27.46 5.14Q26.98 5.14 26.69 4.99Q26.40 4.85 26.21 4.54L26.21 4.54Q25.82 3.96 25.27 3.54Q24.72 3.12 23.54 3.12L23.54 3.12Q22.54 3.12 21.25 3.58Q19.97 4.03 19.42 4.70L19.42 4.70Q18.94 5.30 18.59 6.53Q18.24 7.75 18.24 8.90L18.24 8.90Q18.24 10.30 18.85 11.46Q19.46 12.62 20.63 13.32Q21.79 14.02 23.42 14.02L23.42 14.02Q24.31 14.02 25.26 13.67Q26.21 13.32 26.90 12.53L26.90 12.53L26.88 12.53Q27.31 12.07 27.96 12.07L27.96 12.07Q28.34 12.07 28.69 12.41Q29.04 12.74 29.04 13.08L29.04 13.08Q29.04 13.44 28.93 13.72Q28.82 13.99 28.54 14.33L28.54 14.33Q27.55 15.43 26.21 15.84Q24.86 16.25 22.99 16.25L22.99 16.25Q21.34 16.25 19.64 15.46Q17.95 14.66 17.04 13.54L17.04 13.54Q16.56 12.84 16.12 11.53Q15.67 10.22 15.67 9.41L15.67 9.41Q15.67 7.32 16.31 5.44Q16.94 3.55 18.22 2.42L18.22 2.42Q19.06 1.66 20.64 1.27Q22.22 0.89 23.54 0.89L23.54 0.89Q25.15 0.89 26.08 1.33Q27 1.78 27.91 2.88L27.91 2.88ZM42.96 10.78Q42.02 10.78 41.39 10.72Q40.75 10.66 39.72 10.51L39.72 10.51L39.70 13.03Q39.67 13.68 39.67 14.88L39.67 14.88Q39.67 15.50 39.32 15.85Q38.98 16.20 38.54 16.20L38.54 16.20Q37.75 16.20 37.37 16.00Q36.98 15.79 36.98 15.26L36.98 15.26Q36.98 14.57 37.10 13.30L37.10 13.30Q37.37 10.56 37.37 7.68L37.37 7.68Q37.37 4.99 37.20 2.62L37.20 2.62Q37.22 2.28 37.55 1.85Q37.87 1.42 38.38 1.37L38.38 1.37Q38.93 1.37 40.13 1.18L40.13 1.18Q41.38 0.98 42.02 0.98L42.02 0.98Q43.99 0.98 45.08 1.37Q46.18 1.75 47.28 2.64L47.28 2.64Q48.48 4.51 48.48 5.28L48.48 5.28Q48.48 6.89 47.83 8.14Q47.18 9.38 45.94 10.08Q44.69 10.78 42.96 10.78L42.96 10.78ZM42.41 3.02Q41.64 3.02 41.08 3.11Q40.51 3.19 39.72 3.38L39.72 3.38Q39.82 5.59 39.82 6.60L39.82 6.60Q39.82 7.63 39.74 8.33L39.74 8.33Q40.78 8.54 41.38 8.60Q41.98 8.66 42.72 8.66L42.72 8.66Q44.50 8.66 45.23 7.74Q45.96 6.82 45.96 5.59L45.96 5.59Q45.96 5.23 45.74 4.70Q45.53 4.18 45.36 4.01L45.36 4.01Q44.71 3.43 44.10 3.23Q43.49 3.02 42.41 3.02L42.41 3.02ZM59.78 8.50Q59.98 8.83 60.10 9.47Q60.22 10.10 60.22 10.61L60.22 10.61Q60.22 11.54 59.81 13.27L59.81 13.27Q58.15 16.30 54.91 16.30L54.91 16.30Q53.71 16.30 52.46 15.50Q51.22 14.71 50.74 13.68L50.74 13.68Q50.09 11.62 50.09 11.06L50.09 11.06Q50.09 10.10 50.51 9.02Q50.93 7.94 51.58 7.15L51.58 7.15Q51.98 6.60 53.04 6.20Q54.10 5.81 54.96 5.81L54.96 5.81Q56.64 5.81 57.82 6.44Q58.99 7.08 59.78 8.50L59.78 8.50ZM57.70 12.36Q57.82 12.05 57.82 10.75L57.82 10.75Q57.82 10.06 57.56 9.38Q57.31 8.71 56.83 8.23L56.83 8.23Q56.78 8.18 56.57 8.08Q56.35 7.97 55.98 7.86Q55.61 7.75 55.13 7.75L55.13 7.75Q53.78 7.75 53.16 8.83Q52.54 9.91 52.54 11.28L52.54 11.28Q52.54 11.52 52.67 12.19Q52.80 12.86 52.90 13.03L52.90 13.03Q52.97 13.20 53.27 13.50Q53.57 13.80 54.01 14.03Q54.46 14.26 54.94 14.26L54.94 14.26Q56.02 14.26 56.66 13.74Q57.31 13.22 57.70 12.36L57.70 12.36ZM66.12 15.24Q66.12 15.65 65.81 15.96Q65.50 16.27 65.04 16.27L65.04 16.27Q64.32 16.27 63.98 16.00Q63.65 15.72 63.65 14.98L63.65 14.98Q63.65 14.09 63.60 12.65L63.60 12.65Q63.55 11.45 63.55 10.63L63.55 10.63Q63.55 10.25 63.60 9.62L63.60 9.62Q63.65 9.05 63.65 8.76L63.65 8.76Q63.58 8.30 63.29 8.00Q63.00 7.70 62.54 7.70L62.54 7.70Q62.33 7.70 62.18 7.50Q62.04 7.30 62.04 7.08L62.04 7.08Q62.04 6.53 62.48 6.24Q62.93 5.95 63.55 5.95L63.55 5.95Q64.85 5.95 65.35 7.49L65.35 7.49Q65.98 6.77 66.78 6.32Q67.58 5.88 68.33 5.88L68.33 5.88Q69.22 5.88 69.95 6.36Q70.68 6.84 70.68 7.66L70.68 7.66Q70.68 8.11 70.28 8.59Q69.89 9.07 69.48 9.07L69.48 9.07Q69.26 9.07 69.11 8.96Q68.95 8.86 68.74 8.64L68.74 8.64Q68.50 8.40 68.33 8.29Q68.16 8.18 67.94 8.18L67.94 8.18Q67.56 8.18 67.22 8.30Q66.89 8.42 66.77 8.59L66.77 8.59Q66.38 9.19 66.20 9.67Q66.02 10.15 66.02 10.70L66.02 10.70Q66.02 11.11 66 11.35L66 11.35L65.98 12.72Q65.98 13.03 66 13.42Q66.02 13.80 66.05 13.99L66.05 13.99Q66.12 14.64 66.12 15.24L66.12 15.24ZM73.25 7.99L72.10 7.90Q71.76 7.85 71.56 7.61Q71.35 7.37 71.35 7.03L71.35 7.03Q71.35 6.86 71.44 6.67Q71.52 6.48 71.69 6.34L71.69 6.34Q72.00 6.02 73.37 6.02L73.37 6.02Q73.56 5.09 73.56 4.13L73.56 4.13Q73.56 3.77 73.54 3.50Q73.51 3.24 73.51 3.10L73.51 3.10Q73.51 2.57 73.91 2.30Q74.30 2.04 74.81 2.04L74.81 2.04Q75.43 2.04 75.66 2.35Q75.89 2.66 75.89 3.50L75.89 3.50Q75.89 4.75 75.67 5.95L75.67 5.95Q76.06 5.95 76.73 5.90L76.73 5.90Q77.64 5.86 78.05 5.86L78.05 5.86Q78.46 5.86 78.76 6.06Q79.06 6.26 79.06 6.62L79.06 6.62Q79.06 7.56 78.22 7.73L78.22 7.73Q77.33 7.94 75.46 7.99L75.46 7.99Q75.38 8.93 75.38 10.03L75.38 10.03Q75.38 11.76 75.60 12.86L75.60 12.86Q75.74 13.63 76.09 13.98Q76.44 14.33 77.14 14.33L77.14 14.33Q77.54 14.33 77.98 14.11L77.98 14.11Q78.26 13.94 78.50 13.94L78.50 13.94Q78.84 13.94 79.00 14.16Q79.15 14.38 79.15 14.74L79.15 14.74Q79.15 15.41 78.43 15.85Q77.71 16.30 76.58 16.30L76.58 16.30Q75.89 16.30 75.18 15.96Q74.47 15.62 73.99 15.12L73.99 15.12Q73.92 15.05 73.73 14.57Q73.54 14.09 73.39 13.54L73.39 13.54Q73.15 12.41 73.15 10.37L73.15 10.37Q73.15 9.48 73.25 7.99L73.25 7.99ZM88.15 3.70Q87.82 3.70 87.50 3.53Q87.19 3.36 87.07 3.02L87.07 3.02Q86.83 2.38 86.56 2.10Q86.28 1.82 85.90 1.82L85.90 1.82Q85.66 1.82 85.45 2.18Q85.25 2.54 85.15 3.31L85.15 3.31Q84.98 4.90 84.98 5.74L84.98 5.74Q85.34 5.81 85.99 5.81L85.99 5.81Q86.33 5.81 86.86 5.76L86.86 5.76L87.50 5.74Q87.94 5.74 88.18 5.90Q88.42 6.07 88.42 6.46L88.42 6.46Q88.42 7.01 88.08 7.37Q87.74 7.73 87.29 7.73L87.29 7.73Q85.56 7.73 84.96 7.90L84.96 7.90Q84.96 9.34 85.10 12.02L85.10 12.02Q85.10 12.43 85.15 13.20L85.15 13.20L85.25 15.05Q85.30 15.74 85.12 16.02Q84.94 16.30 84.36 16.30L84.36 16.30Q83.30 16.30 82.99 15.02L82.99 15.02Q82.80 14.11 82.69 12.42Q82.58 10.73 82.58 9.43L82.58 9.43Q82.58 8.76 82.66 7.87L82.66 7.87Q82.61 7.85 82.39 7.85L82.39 7.85Q82.18 7.85 82.08 7.87L82.08 7.87Q81.36 7.92 81.02 7.92L81.02 7.92Q80.81 7.92 80.59 7.61Q80.38 7.30 80.38 6.89L80.38 6.89Q80.38 6.65 80.54 6.44Q80.71 6.24 80.95 6.14L80.95 6.14Q81.31 5.95 81.98 5.95L81.98 5.95L82.70 5.95Q82.70 2.59 83.45 1.27L83.45 1.27Q84.17 0.02 85.82 0.02L85.82 0.02Q86.59 0.02 87.30 0.34Q88.01 0.65 88.45 1.20Q88.90 1.75 88.90 2.45L88.90 2.45Q88.90 3.19 88.70 3.44Q88.51 3.70 88.15 3.70L88.15 3.70ZM99.72 8.50Q99.91 8.83 100.03 9.47Q100.15 10.10 100.15 10.61L100.15 10.61Q100.15 11.54 99.74 13.27L99.74 13.27Q98.09 16.30 94.85 16.30L94.85 16.30Q93.65 16.30 92.40 15.50Q91.15 14.71 90.67 13.68L90.67 13.68Q90.02 11.62 90.02 11.06L90.02 11.06Q90.02 10.10 90.44 9.02Q90.86 7.94 91.51 7.15L91.51 7.15Q91.92 6.60 92.98 6.20Q94.03 5.81 94.90 5.81L94.90 5.81Q96.58 5.81 97.75 6.44Q98.93 7.08 99.72 8.50L99.72 8.50ZM97.63 12.36Q97.75 12.05 97.75 10.75L97.75 10.75Q97.75 10.06 97.50 9.38Q97.25 8.71 96.77 8.23L96.77 8.23Q96.72 8.18 96.50 8.08Q96.29 7.97 95.92 7.86Q95.54 7.75 95.06 7.75L95.06 7.75Q93.72 7.75 93.10 8.83Q92.47 9.91 92.47 11.28L92.47 11.28Q92.47 11.52 92.60 12.19Q92.74 12.86 92.83 13.03L92.83 13.03Q92.90 13.20 93.20 13.50Q93.50 13.80 93.95 14.03Q94.39 14.26 94.87 14.26L94.87 14.26Q95.95 14.26 96.60 13.74Q97.25 13.22 97.63 12.36L97.63 12.36ZM105.19 12.48Q105.19 13.39 105.47 13.88Q105.74 14.38 106.18 14.38L106.18 14.38Q106.42 14.38 106.63 14.34Q106.85 14.30 107.06 14.30L107.06 14.30Q107.30 14.30 107.48 14.54Q107.66 14.78 107.66 15.07L107.66 15.07Q107.66 15.65 107.12 15.97Q106.58 16.30 105.67 16.30L105.67 16.30Q105.02 16.30 104.36 15.90Q103.70 15.50 103.27 14.65Q102.84 13.80 102.84 12.53L102.84 12.53Q102.84 9.79 102.94 7.90L102.94 7.90Q103.06 5.64 103.06 2.21L103.06 2.21Q103.06 1.13 103.18 0.70L103.18 0.70Q103.32 0.36 103.64 0.18Q103.97 0 104.33 0L104.33 0Q104.69 0 104.96 0.12Q105.24 0.24 105.34 0.50L105.34 0.50Q105.43 0.79 105.47 1.07Q105.50 1.34 105.50 1.85L105.50 1.85Q105.50 2.83 105.43 3.74L105.43 3.74Q105.38 4.85 105.38 5.35L105.38 5.35Q105.19 9.58 105.19 12.48L105.19 12.48ZM110.52 0.79Q111.36 0.86 111.98 1.24Q112.61 1.61 112.61 2.35L112.61 2.35Q112.61 2.90 112.09 3.23Q111.58 3.55 110.86 3.55L110.86 3.55Q110.16 3.55 109.90 3.19Q109.63 2.83 109.63 2.45L109.63 2.45Q109.63 1.73 109.79 1.25Q109.94 0.77 110.52 0.79L110.52 0.79ZM112.44 7.10L112.44 11.42L112.44 12.12Q112.44 13.06 112.50 13.88Q112.56 14.71 112.66 15.55L112.66 15.55Q112.63 15.79 112.30 16.04Q111.96 16.30 111.70 16.30L111.70 16.30Q111.24 16.30 110.77 16.12Q110.30 15.94 110.21 15.67L110.21 15.67Q110.06 14.90 110.06 14.30L110.06 14.30Q110.06 12.34 109.94 9.89L109.94 9.89Q109.85 7.73 109.85 6.86L109.85 6.86Q109.85 6.43 110.28 6.12Q110.71 5.81 111.19 5.81L111.19 5.81Q111.89 5.81 112.16 6.12Q112.44 6.43 112.44 7.10L112.44 7.10ZM124.94 8.50Q125.14 8.83 125.26 9.47Q125.38 10.10 125.38 10.61L125.38 10.61Q125.38 11.54 124.97 13.27L124.97 13.27Q123.31 16.30 120.07 16.30L120.07 16.30Q118.87 16.30 117.62 15.50Q116.38 14.71 115.90 13.68L115.90 13.68Q115.25 11.62 115.25 11.06L115.25 11.06Q115.25 10.10 115.67 9.02Q116.09 7.94 116.74 7.15L116.74 7.15Q117.14 6.60 118.20 6.20Q119.26 5.81 120.12 5.81L120.12 5.81Q121.80 5.81 122.98 6.44Q124.15 7.08 124.94 8.50L124.94 8.50ZM122.86 12.36Q122.98 12.05 122.98 10.75L122.98 10.75Q122.98 10.06 122.72 9.38Q122.47 8.71 121.99 8.23L121.99 8.23Q121.94 8.18 121.73 8.08Q121.51 7.97 121.14 7.86Q120.77 7.75 120.29 7.75L120.29 7.75Q118.94 7.75 118.32 8.83Q117.70 9.91 117.70 11.28L117.70 11.28Q117.70 11.52 117.83 12.19Q117.96 12.86 118.06 13.03L118.06 13.03Q118.13 13.20 118.43 13.50Q118.73 13.80 119.17 14.03Q119.62 14.26 120.10 14.26L120.10 14.26Q121.18 14.26 121.82 13.74Q122.47 13.22 122.86 12.36L122.86 12.36Z" transform="translate(36, 9.852)"></path></svg>