<?xml version="1.0" standalone="no"?>
<svg xmlns="http://www.w3.org/2000/svg" viewBox="0 0 195.744 36" width="195.744" height="36"><g fill="#f71950" color="#f71950" transform="translate(0 3.9999999999999982) scale(0.2800001)"><svg width="100.0" height="100.0" x="0.0" y="0.0" viewBox="0 0 100 100"><path fill="currentColor" d="M95,52c0-12.871-5.692-24.431-14.682-32.318C72.431,10.692,60.871,5,48,5C24.29,5,5,24.29,5,48  c0,12.868,5.69,24.426,14.677,32.313C27.564,89.306,39.126,95,52,95c0.084,0,0.166-0.006,0.25-0.006S52.416,95,52.5,95  C75.972,95,95,75.972,95,52.5c0-0.084-0.006-0.166-0.006-0.25S95,52.084,95,52z M21.828,73.371  c-4.245-5.978-6.77-13.259-6.822-21.121c0.135-20.511,16.732-37.109,37.244-37.244c7.862,0.052,15.144,2.577,21.121,6.822  C80.224,28.473,84.5,37.758,84.5,48c0,20.126-16.374,36.5-36.5,36.5C37.758,84.5,28.473,80.224,21.828,73.371z M6,48  C6,24.841,24.841,6,48,6c9.858,0,18.926,3.422,26.1,9.13C67.637,11.242,60.076,9,52,9C28.29,9,9,28.29,9,52  c0,8.074,2.241,15.633,6.127,22.095C9.421,66.923,6,57.856,6,48z M52,89c-10.08,0-19.227-4.055-25.905-10.615  C32.269,82.854,39.838,85.5,48,85.5c20.678,0,37.5-16.822,37.5-37.5c0-8.162-2.646-15.731-7.115-21.905  C84.945,32.773,89,41.92,89,52C89,72.402,72.402,89,52,89z"></path></svg></g><path fill="#ffffff" fill-rule="nonzero" d="M10.22 0.14L13.56 0.14L13.56 15.50Q13.56 16.30 13.08 16.86Q12.60 17.42 11.95 17.42L11.95 17.42Q10.30 17.42 9.24 15.50L9.24 15.50L3.34 6.26L3.34 17.23L0 17.23L0 0.14L3.22 0.14L10.22 11.33L10.22 0.14ZM25.66 10.61L25.66 10.61L28.75 10.61Q28.75 13.87 27.12 15.62Q25.49 17.38 22.51 17.38L22.51 17.38Q15.96 17.38 15.96 9.67L15.96 9.67L15.96 8.23Q15.96 2.16 19.32 0.62L19.32 0.62Q20.64 0 22.51 0L22.51 0Q25.25 0 26.96 1.50Q28.68 3.00 28.68 5.83L28.68 5.83L25.56 5.83Q25.30 4.42 24.62 3.70Q23.95 2.98 22.51 2.98L22.51 2.98Q20.83 2.98 20.02 4.03L20.02 4.03Q19.44 4.78 19.34 6.58L19.34 6.58Q19.30 7.15 19.30 8.14L19.30 8.14L19.30 9.62Q19.30 12.38 20.06 13.39L20.06 13.39Q20.86 14.40 22.52 14.40Q24.19 14.40 24.83 13.48Q25.46 12.55 25.66 10.61ZM47.94 1.62Q49.42 3.10 49.42 5.95Q49.42 8.81 47.94 10.28Q46.46 11.76 43.78 11.76L43.78 11.76L40.49 11.76L40.49 17.23L37.15 17.23L37.15 0.14L43.78 0.14Q46.46 0.14 47.94 1.62ZM46.08 5.95L46.08 5.95Q46.08 3.12 43.61 3.12L43.61 3.12L40.49 3.12L40.49 8.76L43.61 8.76Q44.81 8.76 45.44 8.11Q46.08 7.46 46.08 5.95ZM64.75 7.90L64.75 7.90L64.75 9.19Q64.75 13.49 63.13 15.43Q61.51 17.38 57.94 17.38Q54.36 17.38 52.76 15.43Q51.17 13.49 51.17 9.12L51.17 9.12L51.17 7.87Q51.17 3.89 52.79 1.94Q54.41 0 57.92 0Q61.44 0 63.10 1.97Q64.75 3.94 64.75 7.90ZM61.42 9.12L61.42 9.12L61.42 8.23Q61.42 5.93 60.84 4.56L60.84 4.56Q60.17 2.98 57.96 2.98L57.96 2.98Q55.73 2.98 55.06 4.56L55.06 4.56Q54.50 5.86 54.50 8.23L54.50 8.23L54.50 9.12Q54.50 12.22 55.37 13.30L55.37 13.30Q55.70 13.75 56.36 14.08Q57.02 14.40 57.95 14.40Q58.87 14.40 59.52 14.09Q60.17 13.78 60.53 13.32Q60.89 12.86 61.08 12.12L61.08 12.12Q61.42 10.94 61.42 9.12ZM76.80 10.34L80.62 17.23L76.75 17.23L73.42 10.90L71.02 10.90L71.02 17.23L67.68 17.23L67.68 3.82Q67.68 1.90 68.57 1.02Q69.46 0.14 71.54 0.14L71.54 0.14L74.38 0.14Q76.92 0.14 78.42 1.69Q79.92 3.24 79.92 5.62L79.92 5.62Q79.92 7.34 79.02 8.60Q78.12 9.86 76.80 10.34L76.80 10.34ZM74.16 8.11Q75.22 8.11 75.90 7.38Q76.58 6.65 76.58 5.56Q76.58 4.46 75.92 3.79Q75.26 3.12 74.16 3.12L74.16 3.12L72.50 3.12Q71.02 3.12 71.02 4.63L71.02 4.63L71.02 8.11L74.16 8.11ZM94.49 0.14L94.49 3.12L89.90 3.12L89.90 17.23L86.57 17.23L86.57 3.12L82.01 3.12L82.01 0.14L94.49 0.14ZM108.34 0.14L108.34 3.12L102.31 3.12Q101.26 3.12 100.84 3.53Q100.42 3.94 100.42 4.94L100.42 4.94L100.42 7.32L106.68 7.32L106.44 10.30L100.42 10.30L100.42 17.23L97.08 17.23L97.08 3.62Q97.08 1.73 97.91 0.94Q98.74 0.14 100.75 0.14L100.75 0.14L108.34 0.14ZM123.77 7.90L123.77 7.90L123.77 9.19Q123.77 13.49 122.15 15.43Q120.53 17.38 116.95 17.38Q113.38 17.38 111.78 15.43Q110.18 13.49 110.18 9.12L110.18 9.12L110.18 7.87Q110.18 3.89 111.80 1.94Q113.42 0 116.94 0Q120.46 0 122.11 1.97Q123.77 3.94 123.77 7.90ZM120.43 9.12L120.43 9.12L120.43 8.23Q120.43 5.93 119.86 4.56L119.86 4.56Q119.18 2.98 116.98 2.98L116.98 2.98Q114.74 2.98 114.07 4.56L114.07 4.56Q113.52 5.86 113.52 8.23L113.52 8.23L113.52 9.12Q113.52 12.22 114.38 13.30L114.38 13.30Q114.72 13.75 115.38 14.08Q116.04 14.40 116.96 14.40Q117.89 14.40 118.54 14.09Q119.18 13.78 119.54 13.32Q119.90 12.86 120.10 12.12L120.10 12.12Q120.43 10.94 120.43 9.12ZM137.23 14.26L137.23 17.23L132.14 17.23Q129.26 17.23 127.98 16.12Q126.70 15 126.70 12.48L126.70 12.48L126.70 0.14L130.03 0.14L130.03 12.48Q130.03 13.49 130.49 13.87Q130.94 14.26 132.14 14.26L132.14 14.26L137.23 14.26ZM143.23 0.14L143.23 17.23L139.90 17.23L139.90 0.14L143.23 0.14ZM159.74 7.90L159.74 7.90L159.74 9.19Q159.74 13.49 158.12 15.43Q156.50 17.38 152.93 17.38Q149.35 17.38 147.76 15.43Q146.16 13.49 146.16 9.12L146.16 9.12L146.16 7.87Q146.16 3.89 147.78 1.94Q149.40 0 152.92 0Q156.43 0 158.09 1.97Q159.74 3.94 159.74 7.90ZM156.41 9.12L156.41 9.12L156.41 8.23Q156.41 5.93 155.83 4.56L155.83 4.56Q155.16 2.98 152.95 2.98L152.95 2.98Q150.72 2.98 150.05 4.56L150.05 4.56Q149.50 5.86 149.50 8.23L149.50 8.23L149.50 9.12Q149.50 12.22 150.36 13.30L150.36 13.30Q150.70 13.75 151.36 14.08Q152.02 14.40 152.94 14.40Q153.86 14.40 154.51 14.09Q155.16 13.78 155.52 13.32Q155.88 12.86 156.07 12.12L156.07 12.12Q156.41 10.94 156.41 9.12Z" transform="translate(36, 9.288)"></path></svg>